<svg xmlns="http://www.w3.org/2000/svg" viewBox="0 0 1365 1365" xml:space="preserve"><path fill="#FFF" d="M258.985 1111.787c-31.35.044-62.698.088-94.599-.115-.733-.458-.956-.604-1.22-.687-.056-1.995-.16-3.99-.16-5.986-.007-210.3-.006-420.6-.006-630.9V268h3.658c31.162 0 62.323.018 93.485-.034 2.574-.004 4.28.562 6.204 2.723 16.5 18.537 33.289 36.816 49.925 55.232 14.634 16.2 29.176 32.484 43.77 48.72 18.136 20.173 36.29 40.33 54.425 60.503 11.493 12.785 22.963 25.59 34.452 38.377 14.812 16.488 29.632 32.97 44.45 49.453 14.921 16.598 29.86 33.182 44.757 49.802 5.073 5.66 10.042 11.412 15.434 17.548 7.603-8.505 15.1-16.777 22.46-25.169 4.447-5.07 8.551-10.444 13.042-15.474 10.233-11.461 20.71-22.704 30.901-34.202 13.772-15.537 27.327-31.268 41.055-46.844 8.857-10.05 17.92-19.916 26.78-29.963 13.733-15.575 27.349-31.253 41.058-46.85 8.168-9.292 16.444-18.49 24.63-27.766 14.513-16.444 28.97-32.936 43.5-49.365 8.759-9.904 17.638-19.702 26.412-29.593 7.215-8.133 14.274-16.408 21.608-24.43 1.257-1.376 3.546-2.545 5.366-2.556 25.995-.164 51.991-.112 77.987-.104.646 0 1.293.101 2.483.2 0 172.649 0 345.22-.354 518.243-.75.495-1.147.538-1.544.582-22.597-18.793-45.177-37.606-67.8-56.368a1204.332 1204.332 0 0 0-20.609-16.69c-2.67-2.117-3.629-4.534-3.624-8.046.113-87.66.089-175.32.089-262.98v-5.4l1.088 1.302c-5.945 5.132-12.176 9.974-17.757 15.475-5.995 5.91-11.28 12.53-17.05 18.678-12.95 13.8-26.05 27.463-39.016 41.25-20.112 21.382-40.174 42.812-60.237 64.241-8.951 9.561-17.83 19.19-26.781 28.75-20.063 21.43-40.161 42.827-60.224 64.256-8.951 9.56-17.852 19.168-26.776 28.752-8.92 9.581-18.052 18.977-26.685 28.81-5.04 5.739-14.496 4.452-18.518.444-18.598-18.533-37.1-37.162-55.589-55.806-3.729-3.76-7.193-7.78-10.866-11.598-19.246-20.004-38.552-39.948-57.77-59.977-12.065-12.573-24.004-25.267-36.015-37.891-14.31-15.04-28.644-30.058-42.955-45.099-12.586-13.229-25.2-26.432-37.718-39.726-13.387-14.216-26.677-28.525-40.008-42.794-1.098-1.176-2.192-2.356-4.135-4.445 0 230.13 0 459.013-.26 688.441-.505.693-.666.902-.743 1.175z"/><path fill="#FFF" d="M1115.026 258.163h94.96c0 283.995 0 567.949-.262 852.447-.507.689-.667.9-.74 1.175-30.657.049-61.315.18-91.971-.014-2.389-.016-5.063-1.938-7.095-3.598-14.11-11.529-28.032-23.288-42.12-34.845-15.497-12.713-31.136-25.253-46.658-37.936-11.849-9.682-23.591-19.494-35.418-29.203-16.25-13.342-32.572-26.598-48.797-39.971-16.108-13.278-32.08-26.722-48.214-39.97-15.49-12.718-31.15-25.228-46.658-37.923-10.43-8.537-20.812-17.137-31.032-25.923-3.126-2.688-5.243-3.3-8.796-.304-16.59 13.981-33.507 27.572-50.215 41.414-14.577 12.076-28.973 24.37-43.554 36.44-14.302 11.838-28.778 23.466-43.101 35.28-12.32 10.16-24.484 20.513-36.803 30.676-18.382 15.166-36.878 30.194-55.252 45.37-12.562 10.377-24.973 20.936-37.499 31.357-11.377 9.464-22.771 18.909-34.298 28.188-1.209.973-3.365 1.061-5.083 1.065-30.494.056-60.988.035-92.034-.216-.733-.458-.956-.604-1.22-.687-.056-1.162-.16-2.324-.16-3.487C403 954.837 403 802.176 403 649.515v-3.73c1.48 1.366 2.51 2.267 3.485 3.224 19.357 19.005 38.683 38.042 58.073 57.014 8.669 8.483 17.395 16.909 26.245 25.201 2.36 2.213 3.27 4.481 3.267 7.731-.09 78.83-.07 157.661-.07 236.492v6.37c5.859-4.51 10.992-8.38 16.037-12.362 15.823-12.488 31.648-24.973 47.405-37.544 13.995-11.164 27.858-22.492 41.854-33.654 17.307-13.802 34.71-27.484 52.037-41.263 15.27-12.143 30.468-24.376 45.737-36.52 15.795-12.56 31.655-25.039 47.454-37.594 15.02-11.937 30.007-23.92 44.996-35.897 8.553-6.835 20.803-7.181 29.524-.315 16.905 13.309 33.592 26.895 50.437 40.28 18.755 14.903 37.628 29.657 56.371 44.575 17.229 13.712 34.308 27.613 51.534 41.328 17.068 13.59 34.273 27.008 51.353 40.584 15.437 12.271 30.763 24.682 46.182 36.976 12.793 10.2 25.65 20.32 39.196 31.043 0-241.058 0-481.28.254-722.039.466-.732.6-.97.655-1.252z"/><path fill="#FFF" d="M929.064 777.327c.277-.338.674-.381 1.37-.415-.217.243-.733.476-1.37.415zM1114.747 258.122c.224.324.09.561-.316.83-.116-.24-.04-.556.316-.83zM163.12 1111.26c.31-.192.533-.046.802.346-.223.097-.535.013-.802-.346zM259.254 1111.858c-.192-.344-.031-.553.397-.783.08.228-.024.54-.397.783zM403.12 1111.26c.31-.192.533-.046.802.345-.223.098-.535.014-.802-.345zM1209.253 1111.856c-.196-.347-.036-.557.394-.784.082.23-.022.542-.394.784z"/></svg>